<svg preserveAspectRatio="none" overflow="visible" style="display: block;" width="24" height="24" viewBox="0 0 24 24" fill="none" xmlns="http://www.w3.org/2000/svg">
<g id="ic_visibility">
<path id="Vector" d="M12.0023 15.5769C13.1354 15.5769 14.0977 15.1803 14.8894 14.3872C15.6811 13.594 16.0769 12.6308 16.0769 11.4977C16.0769 10.3646 15.6803 9.40227 14.8872 8.6106C14.094 7.81893 13.1308 7.4231 11.9977 7.4231C10.8646 7.4231 9.90227 7.81968 9.1106 8.61285C8.31893 9.40603 7.9231 10.3692 7.9231 11.5023C7.9231 12.6354 8.31968 13.5977 9.11285 14.3894C9.90603 15.1811 10.8692 15.5769 12.0023 15.5769ZM12 14.2C11.25 14.2 10.6125 13.9375 10.0875 13.4125C9.5625 12.8875 9.3 12.25 9.3 11.5C9.3 10.75 9.5625 10.1125 10.0875 9.5875C10.6125 9.0625 11.25 8.8 12 8.8C12.75 8.8 13.3875 9.0625 13.9125 9.5875C14.4375 10.1125 14.7 10.75 14.7 11.5C14.7 12.25 14.4375 12.8875 13.9125 13.4125C13.3875 13.9375 12.75 14.2 12 14.2ZM12 18.5C9.89488 18.5 7.96957 17.9384 6.22407 16.8154C4.47856 15.6923 3.08529 14.2147 2.04427 12.3827C1.96094 12.2391 1.90004 12.0944 1.86157 11.9485C1.82311 11.8027 1.80387 11.653 1.80387 11.4995C1.80387 11.346 1.82311 11.1965 1.86157 11.051C1.90004 10.9055 1.96094 10.7609 2.04427 10.6173C3.08529 8.78527 4.47856 7.30772 6.22407 6.18465C7.96957 5.06157 9.89488 4.50002 12 4.50002C14.1051 4.50002 16.0304 5.06157 17.7759 6.18465C19.5214 7.30772 20.9147 8.78527 21.9557 10.6173C22.0391 10.7609 22.1 10.9056 22.1384 11.0514C22.1769 11.1973 22.1961 11.347 22.1961 11.5005C22.1961 11.654 22.1769 11.8035 22.1384 11.949C22.1 12.0945 22.0391 12.2391 21.9557 12.3827C20.9147 14.2147 19.5214 15.6923 17.7759 16.8154C16.0304 17.9384 14.1051 18.5 12 18.5ZM12 17C13.8833 17 15.6125 16.5042 17.1875 15.5125C18.7625 14.5208 19.9667 13.1833 20.8 11.5C19.9667 9.81667 18.7625 8.47917 17.1875 7.4875C15.6125 6.49583 13.8833 6 12 6C10.1167 6 8.3875 6.49583 6.8125 7.4875C5.2375 8.47917 4.03333 9.81667 3.2 11.5C4.03333 13.1833 5.2375 14.5208 6.8125 15.5125C8.3875 16.5042 10.1167 17 12 17Z" fill="#E0E0E0"/>
</g>
</svg>
